<svg id="Layer_2" data-name="Layer 2" xmlns="http://www.w3.org/2000/svg" viewBox="0 0 1039 1031"><defs><style>.cls-1{fill:#8c1c13;}.cls-2{font-size:78px;font-family:Reey-Regular, Reey;}.cls-2,.cls-3{fill:#ffc004;}.cls-4{font-size:12px;font-family:MyriadPro-Regular, Myriad Pro;}</style></defs><path class="cls-1" d="M982.21,280.45c-10.22-11.82-15.32-17.72-15-28.37-10.91,9.44-22.24,29.54-38.33,33.07l-15.26-17.74c5.86-15.37,32.47-17.69,38.29-33l-20.44-23.64c-5.1-5.9.35-10.61,5.79-15.32l-21.8,18.84-20.4-23.63c-5.12-5.92.32-10.62,5.77-15.33-10.2-11.81-15-28.32-25.52-29.53L859,159.87c12.63-18.75,7.22-45.68-2.81-65.33q4.32-7.85,8.21-15.8a66.54,66.54,0,0,1,7.92-12.13c3.18-4,6.71-8,10.54-12,7.62-8,16.17-16,23.72-24.38s14.11-17,17.71-26.14A38.82,38.82,0,0,0,924-25.62l-10.5,14.41C910-6.39,906.31-1.71,902.75,3a63.79,63.79,0,0,1,2.67-14.68,66.88,66.88,0,0,1,5.25-12.72c4.26-7.92,9.89-14.81,15.91-21.43s12.46-13,18.29-19.72a115.66,115.66,0,0,0,8.19-10.57,70.24,70.24,0,0,0,6.35-11.87c-12.75-9-19.1-13.56-18.74-27.73-3.37,4.83-6.77,10.54-10.27,16.63s-7.33,12.41-11.24,18.68C911.28-67.89,902.6-56,892.51-48.76L873.66-62.62c3.74-11.79,13.92-22.45,24.12-33.14,5.07-5.37,10.27-10.66,14.44-16.23s7.56-11.25,9.32-17.17l-25.55-18c-6.38-4.5.26-14,6.89-23.5l-26.55,38-25.41-18.13c-6.37-4.54.19-13.94,6.77-23.37-12.75-9-19-27.31-31.91-22.47-6.53,9.31-12.93,18.7-19.7,27.83a80.27,80.27,0,0,0,8.29-30.67,83.07,83.07,0,0,0-2.84-27.9c-4.75-17.07-14.4-30.52-24-37.18,0,13.63-19.21.24-19.16,13.83,0-40.9-7.12-85.25-38.62-53.77-59.29,75.5-119,151.08-180,226.05S426.29,70.93,361.86,143.76,231,287.9,162,356.46,21.55,490.91-52.48,552.83c-3.15,4.94-4.38,9-4.3,12.51a14.71,14.71,0,0,0,3.43,9.2c4.16,5.42,11.19,9.87,15.94,16.07,17.54-13.72,33.87-29,50.31-41.81,8.28-6.35,16.33-12.44,24.68-17.32a98.57,98.57,0,0,1,25.85-11c4.33-3.52,7.13,4.27,11.14,13.59s9.22,20.19,18.55,22.69l17.52-14.27,4.9-4,4.62-3.9L128,528c11.82,5.31,17.21,16.1,22.55,26.92s10.66,21.67,22.58,26.93,24.16-2.59,35.8-11.19c5.68-4.2,11.22-8.55,16.5-11.68a83.93,83.93,0,0,1,7.11,5.85c3.26-3.37,6.41-6.84,9.51-10.34,17.08-5,16.49,3.15,8.31,15.47-8.42,12.47-25,28.94-38.29,40.26,18.94,4.41-17.76,15.06-7.76,27,20,24,39.81,48.16,91.38,35.12,14.2-1.79,20.3,23.74,30.41,35.63l20.81-17.67c6.89-6,13.74-12.12,20.64-18.24q20.69-18.36,41.46-37.18Q429.4,615.73,449.63,596l6.89-6.75a84.15,84.15,0,0,1-6.15,7.48,114.34,114.34,0,0,1-12.43,11.92c7.62,3.87,4.93,6.05,1.59,8.76s-7.23,6.07-2.22,12c20.05,24,40.25,47.53,74.72,49.79,9.92,2.14,19.41,24.45,29.22,36.62,14.53-11.53,30.06-23.38,46.22-35.93S620.63,654,637.53,639.6a657.57,657.57,0,0,0,50.34-47.42Q694,585.66,700,579c4-4.5,7.86-9.14,11.66-13.8,7.65-9.33,14.78-19,21.5-29,23.12-32.21,57.19-55.77,90.56-79.95S889.59,407.38,909,374c11.75-20.15,59.8-20.19,45.38-59.28L937.83,329C939.12,297,970.91,300.55,982.21,280.45Z" transform="translate(56.79 315.12)"/><text class="cls-2" transform="translate(399.13 510.18)">Eat </text><text class="cls-2" transform="translate(545.42 597.33)">Good </text><path class="cls-3" d="M568.12,137.47c2.6-29.53,16.56-52.74,35.54-58,2.28-.63,19.06-5,30.62,4.42,1.64,1.33,7.66,6.23,7.72,13.35.06,8-7.34,14.17-13.09,16.84-10.25,4.74-17.1-1-28.06,0C592.56,114.81,581.07,119.43,568.12,137.47Z" transform="translate(56.79 315.12)"/><path class="cls-3" d="M573.06,139.57c13.14-8.81,27.47-10.78,36-4.66,1,.74,8.47,6.25,8.43,14.21,0,1.13,0,5.27-3,7.68-3.28,2.69-8.35,1.7-11.39.2-5.4-2.67-5.32-7.43-9.4-11.66C590.66,142.14,584.9,138.91,573.06,139.57Z" transform="translate(56.79 315.12)"/><path class="cls-3" d="M564.85,137.47c-13.49-8.26-21.27-20.45-19.28-30.76.24-1.25,2.15-10.3,9.39-13.59,1-.47,4.8-2.19,8.22-.52,3.81,1.85,5,6.87,4.93,10.25-.16,6-4.52,8-6.66,13.42C559.83,120.4,559.31,127,564.85,137.47Z" transform="translate(56.79 315.12)"/><text class="cls-4" transform="translate(456.79 715.12)">19</text></svg>