<svg id="Layer_1" data-name="Layer 1" xmlns="http://www.w3.org/2000/svg" viewBox="0 0 168.47 76.5"><defs><style>.cls-1{fill:#e9edff;}.cls-2{fill:#f4f4f4;}.cls-3,.cls-4{isolation:isolate;font-size:39px;font-family:BebasNeueBold, Bebas Neue;}.cls-3{fill:#f0f3ff;}.cls-4{fill:#ffc004;}</style></defs><path class="cls-1" d="M10,72.22a7.75,7.75,0,0,0,4,0,7.65,7.65,0,0,0,10.83.31h0l.17-.17a7.68,7.68,0,0,0,5.87-1.64A8.5,8.5,0,0,0,34,65.32L51.65,18.38l-3.88-1.1A7.73,7.73,0,0,0,43.3,8,7.69,7.69,0,0,0,34,2.34l-.08,0A7.69,7.69,0,0,0,23.1,2.09L23,2.23a7.76,7.76,0,0,0-8.68,5.52L10.4,6.64.68,55.83A8.48,8.48,0,0,0,.51,62a7.64,7.64,0,0,0,4.15,4.53A7.7,7.7,0,0,0,10,72.22Zm18.45-4.51a3.75,3.75,0,0,1-3.25.79c-.29-.13-.26-.1-1.65-.6l-.84,1.2a3.86,3.86,0,0,1-4.21,1.51c-1.87-.53-2.36-2-3.13-3.15C14.1,68,12.89,69,11,68.46A3.89,3.89,0,0,1,8.23,65L8.15,63.5c-1.44-.32-1.4-.33-1.72-.37a3.74,3.74,0,0,1-2.36-2.4,4.67,4.67,0,0,1-.07-3A23.88,23.88,0,0,0,12,58l-.17.61A5.81,5.81,0,0,0,23,61.77l.15-.53a25.36,25.36,0,0,0,6.93,3.91A4.62,4.62,0,0,1,28.41,67.71Zm-10-11.41a25.47,25.47,0,0,0,1.6,2l-.71,2.47a1.93,1.93,0,1,1-3.72-1.06L16.32,57c.69-.22,1.38-.47,2.07-.76ZM31.3,61.54a21.24,21.24,0,0,1-9.43-7A26.1,26.1,0,0,0,33.41,39.43,25.09,25.09,0,0,0,31.59,21a21.23,21.23,0,0,1,13.23-.52l1.7.49Zm1-46.6-.55,2c-.76.23-1.51.49-2.25.79-.46-.64-1-1.25-1.48-1.84l.56-2A1.93,1.93,0,1,1,32.3,15ZM23,6.28l1.38.48.84-1.2a3.82,3.82,0,0,1,5.31-1h0a3.93,3.93,0,0,1,1.1,1.16l.92,1.47,1.57-.77a3.82,3.82,0,0,1,5.13,1.7h0a3.74,3.74,0,0,1,.4,1.54l.09,1.46c1.43.31,1.4.32,1.72.37A3.87,3.87,0,0,1,44,16.26v.07A25.3,25.3,0,0,0,36.05,16,5.84,5.84,0,1,0,25,12.39l-.12.44A24.94,24.94,0,0,0,18,8.92V8.85A3.84,3.84,0,0,1,22.7,6.2Zm-9.6,5.26,1.7.48a21.31,21.31,0,0,1,14.65,26.3C26.69,48.84,15.9,56.12,5,54Z" transform="translate(0 0.03)"/><path class="cls-2" d="M17.45,24.79l3.72,1.06-1.06,3.69-3.72-1Z" transform="translate(0 0.03)"/><path class="cls-2" d="M22.78,34.36l3.72,1.06-1.06,3.72L21.72,38Z" transform="translate(0 0.03)"/><path class="cls-2" d="M13.21,39.68,17,40.74,15.9,44.47l-3.74-1.06Z" transform="translate(0 0.03)"/><text class="cls-3" transform="translate(54.91 34.52)">WRAPPED</text><text class="cls-4" transform="translate(54.91 69.52)">BITES</text></svg>