<svg id="Layer_1" data-name="Layer 1" xmlns="http://www.w3.org/2000/svg" viewBox="0 0 174.52 76.47"><defs><style>.cls-1,.cls-4{fill:#1c1f33;}.cls-2{fill:#f4f4f4;}.cls-3,.cls-4,.cls-5{isolation:isolate;}.cls-4,.cls-5{font-size:39px;font-family:BebasNeueBold, Bebas Neue;}.cls-5{fill:#ffc004;}</style></defs><path class="cls-1" d="M10,72.18a7.75,7.75,0,0,0,4,0,7.66,7.66,0,0,0,10.83.31l.17-.17a7.68,7.68,0,0,0,5.87-1.64,8.5,8.5,0,0,0,3.16-5.4L51.69,18.34l-3.88-1.1A7.73,7.73,0,0,0,43.34,8,7.69,7.69,0,0,0,34,2.32a7.68,7.68,0,0,0-11-.13,7.75,7.75,0,0,0-8.68,5.52L10.44,6.6.72,55.79A8.51,8.51,0,0,0,.55,62,7.65,7.65,0,0,0,4.7,66.53,7.7,7.7,0,0,0,10,72.18Zm18.45-4.51a3.75,3.75,0,0,1-3.25.79c-.29-.13-.26-.1-1.65-.6l-.84,1.2a3.86,3.86,0,0,1-4.21,1.51c-1.87-.53-2.36-2-3.13-3.15-1.23.53-2.44,1.57-4.32,1a3.89,3.89,0,0,1-2.78-3.5l-.08-1.46c-1.44-.32-1.4-.33-1.72-.37a3.74,3.74,0,0,1-2.36-2.4,4.67,4.67,0,0,1-.07-3,23.88,23.88,0,0,0,8,.25l-.17.61a5.81,5.81,0,0,0,11.17,3.18l.15-.53a25.36,25.36,0,0,0,6.93,3.91,4.62,4.62,0,0,1-1.67,2.56ZM18.43,56.26a25.47,25.47,0,0,0,1.6,2l-.71,2.47a1.93,1.93,0,1,1-3.72-1.06L16.36,57c.69-.22,1.38-.47,2.07-.76ZM31.34,61.5a21.29,21.29,0,0,1-9.43-7A26.1,26.1,0,0,0,33.45,39.39,25.09,25.09,0,0,0,31.63,21a21.23,21.23,0,0,1,13.23-.52l1.7.49Zm1-46.6-.55,2c-.76.23-1.51.49-2.25.79-.46-.64-1-1.25-1.48-1.84l.56-2a1.93,1.93,0,1,1,3.72,1.06ZM23,6.24l1.38.48.84-1.2a3.82,3.82,0,0,1,5.31-1,3.93,3.93,0,0,1,1.1,1.16l.92,1.47,1.57-.77a3.82,3.82,0,0,1,5.13,1.7,3.74,3.74,0,0,1,.4,1.54l.09,1.46c1.43.31,1.4.32,1.72.37A3.87,3.87,0,0,1,44,16.22v.07A25.27,25.27,0,0,0,36.09,16,5.81,5.81,0,1,0,25,12.35l-.12.44A24.85,24.85,0,0,0,18,8.88V8.81a3.84,3.84,0,0,1,4.74-2.65Zm-9.6,5.26,1.7.48a21.31,21.31,0,0,1,14.65,26.3C26.73,48.8,15.94,56.08,5,54Z" transform="translate(-0.04 0.04)"/><path class="cls-2" d="M17.49,24.75l3.72,1.06L20.15,29.5l-3.72-1Z" transform="translate(-0.04 0.04)"/><path class="cls-2" d="M22.82,34.32l3.72,1.06L25.48,39.1,21.76,38Z" transform="translate(-0.04 0.04)"/><path class="cls-2" d="M13.25,39.64,17,40.7l-1.06,3.73L12.2,43.37Z" transform="translate(-0.04 0.04)"/><g class="cls-3"><text class="cls-4" transform="translate(54.91 34.49)">WRAPPED </text><text class="cls-5" transform="translate(54.91 69.49)">BITES</text></g></svg>